<?xml version="1.0" standalone="no"?>
<!DOCTYPE svg PUBLIC "-//W3C//DTD SVG 20010904//EN"
 "http://www.w3.org/TR/2001/REC-SVG-20010904/DTD/svg10.dtd">
<svg version="1.0" xmlns="http://www.w3.org/2000/svg"
 width="920.000000pt" height="920.000000pt" viewBox="0 0 920.000000 920.000000"
 preserveAspectRatio="xMidYMid meet">

<g transform="translate(0.000000,920.000000) scale(0.100000,-0.100000)"
fill="#000000" stroke="none">
<path d="M4300 9188 c-1624 -105 -3081 -1071 -3808 -2524 -280 -559 -439
-1147 -481 -1774 -18 -260 -3 -638 35 -920 170 -1263 883 -2421 1940 -3152
506 -350 1100 -603 1699 -723 672 -134 1369 -119 2030 46 1719 428 3052 1828
3394 3564 332 1687 -298 3411 -1639 4486 -689 553 -1516 890 -2410 984 -183
19 -569 26 -760 13z m653 -373 c207 -18 341 -38 522 -76 1256 -264 2332 -1096
2911 -2251 499 -995 580 -2185 220 -3244 -497 -1462 -1756 -2543 -3271 -2809
-390 -68 -843 -81 -1235 -35 -1839 216 -3333 1622 -3664 3450 -49 273 -61 412
-60 750 0 338 11 480 60 750 199 1097 813 2060 1727 2707 632 449 1392 717
2172 766 144 9 470 5 618 -8z"/>
<path d="M6953 7239 c-64 -11 -164 -48 -251 -94 -151 -79 -440 -317 -1026
-845 -176 -158 -245 -214 -260 -212 -39 6 -861 152 -911 163 l-51 10 24 92
c30 115 34 263 9 319 -43 96 -128 149 -208 128 -108 -28 -232 -157 -323 -337
-20 -41 -32 -53 -49 -53 -36 1 -526 66 -531 71 -3 3 -1 22 4 44 13 55 12 157
-1 210 -14 56 -69 120 -117 136 -56 19 -142 14 -189 -9 -59 -31 -122 -106
-178 -215 -42 -80 -53 -95 -70 -91 -11 2 -90 13 -175 24 -483 60 -897 50
-1073 -28 -88 -39 -157 -139 -157 -227 0 -64 29 -133 78 -185 l47 -50 385
-116 c1346 -404 1628 -494 2045 -652 314 -119 405 -156 402 -164 -1 -4 -328
-377 -727 -829 -399 -452 -734 -832 -745 -845 l-20 -23 -175 29 c-376 61 -627
85 -814 77 -146 -5 -217 -24 -243 -64 -15 -22 -15 -27 0 -58 9 -20 44 -55 79
-81 70 -52 479 -256 718 -358 201 -86 230 -103 257 -151 12 -22 58 -123 102
-225 106 -245 258 -570 309 -656 77 -133 141 -174 189 -121 38 41 46 86 50
277 6 207 -9 392 -58 730 -16 113 -29 206 -29 207 0 6 1710 1465 1717 1465 20
0 320 -882 468 -1377 120 -400 171 -561 346 -1098 l140 -428 40 -29 c81 -58
154 -63 236 -14 90 52 151 160 185 326 18 86 21 140 22 328 1 228 -10 368 -45
609 -11 74 -18 135 -17 136 2 2 41 22 88 45 180 89 245 164 245 280 0 160
-126 242 -326 212 -40 -6 -74 -10 -75 -9 -4 4 -65 549 -62 551 2 2 35 20 73
41 222 121 325 233 325 352 0 65 -38 121 -107 154 -43 22 -60 24 -173 23 -93
-1 -142 -6 -192 -21 l-67 -20 -5 26 c-3 14 -40 236 -81 494 l-76 468 188 202
c426 458 679 746 812 927 103 138 161 270 181 408 19 131 -2 147 -157 121z"/>
</g>
</svg>
